Coordinates
version=1
nRows=19
nColumns=36
inDegrees=yes

Units are S.I. units (second, meters, Newtons, ...)
If the header above contains a line with 'inDegrees', this indicates whether rotational values are in degrees (yes) or radians (no).

endheader
time	pelvis_tilt	pelvis_list	pelvis_rotation	pelvis_tx	pelvis_ty	pelvis_tz	hip_flexion_r	hip_adduction_r	hip_rotation_r	knee_angle_r	knee_angle_r_beta	ankle_angle_r	subtalar_angle_r	mtp_angle_r	hip_flexion_l	hip_adduction_l	hip_rotation_l	knee_angle_l	knee_angle_l_beta	ankle_angle_l	subtalar_angle_l	mtp_angle_l	lumbar_extension	lumbar_bending	lumbar_rotation	arm_flex_r	arm_add_r	arm_rot_r	elbow_flex_r	pro_sup_r	arm_flex_l	arm_add_l	arm_rot_l	elbow_flex_l	pro_sup_l
      0.97000000	      4.13013531	      3.96343140	      4.37101092	      1.09900432	      0.90090608	     -0.24430153	     24.34453409	     -5.67798167	     -4.59371469	     28.15231207	      0.49135054	     -1.50142257	    -21.18458650	     -7.43901083	    -13.25369647	      7.47760218	     -3.07448761	      9.61110328	      0.16774540	     14.53699390	     12.02854451	     -7.43901083	    -12.86712953	     -5.38656310	    -13.33587282	     -3.01027568	     -4.58939847	    -10.57393762	     20.09541480	     85.38560382	     17.52394908	    -13.62290167	      1.01252355	     41.13130223	     95.85246642
      0.98000000	      3.56108764	      4.13492636	      4.72643101	      1.11271855	      0.89829874	     -0.24385292	     24.40649691	     -5.77779523	     -5.18427743	     23.38917013	      0.40821803	     -1.25159507	    -20.78766024	     -7.43959695	    -13.67351101	      7.45045229	     -2.83157649	      9.56380429	      0.16691987	     14.69119750	     12.39347421	     -7.43959695	    -12.12049119	     -5.74365760	    -13.66122808	     -3.51670108	     -4.56916847	    -10.75800400	     19.66368975	     85.25645971	     18.26172542	    -13.79486764	      1.27976576	     41.99746086	     96.03834369
      0.99000000	      3.64710444	      4.14620682	      5.07615883	      1.12660170	      0.89648082	     -0.24328537	     23.53968874	     -5.63768445	     -6.11530352	     18.46582712	      0.32228948	     -1.29778058	    -20.11452035	     -7.44139746	    -14.84022312	      7.12194990	     -3.00885702	      9.41099481	      0.16425285	     15.20910146	     13.30436475	     -7.44139746	    -12.15885181	     -5.84968306	    -14.10919351	     -3.68946475	     -4.49410427	    -11.18026742	     19.06811731	     84.88895133	     18.91543283	    -14.16941674	      1.84855517	     43.21256149	     96.43449911
      1.00000000	      3.36867647	      4.18894386	      5.40546503	      1.14068085	      0.89405407	     -0.24266911	     23.13164460	     -5.50549665	     -6.82930622	     13.99338439	      0.24423063	     -0.67895909	    -18.51705076	     -7.44501493	    -15.47246924	      6.83304672	     -3.30200065	      9.56852661	      0.16700229	     15.64033471	     14.56309524	     -7.44501493	    -11.71718694	     -6.01322033	    -14.47352877	     -4.00507030	     -4.47709954	    -11.66029205	     18.68375510	     84.24409168	     19.45830079	    -14.40948370	      2.26444075	     44.11172986	     96.98056138
      1.01000000	      3.13142086	      4.20742593	      5.75004938	      1.15473328	      0.89160982	     -0.24197187	     22.68769763	     -5.29352455	     -7.14906272	      9.95482289	      0.17374444	     -0.21439666	    -16.94004618	     -7.44622786	    -16.11650074	      6.54191034	     -3.23739901	      9.77229970	      0.17055881	     15.90515716	     14.84090078	     -7.44622786	    -11.35662853	     -6.15491571	    -14.81401640	     -4.23210674	     -4.46491945	    -11.91332676	     18.12991529	     83.98951420	     20.00363912	    -14.62279684	      2.64899522	     45.03037089	     97.24443338
      1.02000000	      2.97232080	      4.19535103	      6.13396327	      1.16893182	      0.88923455	     -0.24130745	     22.30381287	     -5.11630227	     -7.65000566	      6.78063724	      0.11834445	      1.25611114	    -13.91462513	     -7.45011364	    -16.74003814	      6.14025099	     -3.44366169	     10.17082835	      0.17751444	     16.19835389	     15.83077174	     -7.45011364	    -11.08984531	     -6.23701535	    -15.15436573	     -4.43444196	     -4.44878979	    -12.25110049	     17.65263894	     83.27247290	     20.49301974	    -14.82058860	      3.03986948	     45.94956280	     97.79657485
      1.03000000	      2.66330411	      4.18248342	      6.48949590	      1.18305642	      0.88667465	     -0.24058165	     22.15516584	     -4.88627850	     -7.03016008	      4.29336772	      0.07493340	      1.73370345	    -12.66668830	     -7.45065059	    -17.10936955	      5.80940191	     -3.24105388	     10.73048684	      0.18728233	     16.22173063	     15.89798387	     -7.45065059	    -10.66875909	     -6.31469739	    -15.41508939	     -4.63796941	     -4.46808164	    -12.40925061	     17.17271259	     83.13309158	     20.97058594	    -14.92144115	      3.32847955	     46.67997308	     97.95601109
      1.04000000	      2.47359245	      4.17376457	      6.87419959	      1.19738785	      0.88435295	     -0.23998242	     22.03333691	     -4.72202527	     -6.40017636	      2.78298920	      0.04857232	      2.28723676	    -11.65601845	     -7.45098388	    -17.54173593	      5.44869635	     -3.07987458	     11.41782125	      0.19927857	     16.15876347	     15.98445896	     -7.45098388	    -10.38927523	     -6.36220859	    -15.58219971	     -4.84766355	     -4.50688418	    -12.55682100	     16.68745095	     83.01941410	     21.43273307	    -14.90177069	      3.60068166	     47.42515455	     98.09699415
      1.05000000	      2.62188831	      4.00873942	      7.24047339	      1.21195967	      0.88254562	     -0.23938942	     21.80670552	     -4.47542584	     -6.52160091	      2.51542024	      0.04390237	      4.54581312	     -7.61584529	     -7.45439172	    -18.19158346	      4.78607206	     -3.61075130	     12.33691728	      0.21531983	     16.41151187	     16.93703850	     -7.45439172	    -10.47338426	     -6.12431770	    -15.98589792	     -4.70315966	     -4.55877882	    -12.82002184	     16.06705931	     82.23853796	     21.62026692	    -15.16692280	      4.09159218	     48.34050580	     98.66168815
      1.06000000	      2.62064218	      3.84954420	      7.57863748	      1.22666416	      0.88069131	     -0.23871951	     21.70676220	     -4.14535238	     -5.43593444	      2.67970418	      0.04676966	      4.87261421	     -7.05903771	     -7.45494466	    -18.61614771	      4.21521362	     -3.54831643	     13.38205245	      0.23356088	     16.14986340	     16.84626937	     -7.45494466	    -10.36255778	     -5.92006395	    -16.12854074	     -4.77060748	     -4.62926303	    -12.94448180	     15.63530153	     82.08655705	     21.88671951	    -15.14088553	      4.33834911	     48.92098653	     98.81404337
      1.07000000	      2.68866970	      3.62533203	      7.92954424	      1.24171352	      0.87908651	     -0.23808249	     21.62641693	     -3.74853538	     -4.46094895	      3.55943973	      0.06212394	      4.99962954	     -6.68588389	     -7.45548282	    -19.01876907	      3.53194502	     -3.60766204	     14.59297508	      0.25469546	     15.74387624	     16.79837962	     -7.45548282	    -10.30555930	     -5.59440209	    -16.21986632	     -4.83407189	     -4.73549020	    -13.08653282	     15.16669787	     81.92133904	     22.02313339	    -15.08420259	      4.60494123	     49.50243240	     98.97738637
      1.08000000	      2.80106251	      3.34968156	      8.23168412	      1.25710152	      0.87770651	     -0.23736875	     21.59339033	     -3.26023309	     -3.66575533	      4.98120948	      0.08693851	      4.74311469	     -6.61932437	     -7.45596066	    -19.39824863	      2.78339894	     -3.70503550	     15.91219707	      0.27772023	     15.15539175	     16.75974939	     -7.45596066	    -10.24213115	     -5.20457044	    -16.22071789	     -4.91301076	     -4.85496709	    -13.20968758	     14.75480625	     81.76574689	     22.04896300	    -14.98121752	      4.81381574	     49.97799386	     99.12618746
      1.09000000	      2.87230249	      3.01734189	      8.45701590	      1.27279256	      0.87643879	     -0.23647630	     21.67599364	     -2.66442063	     -3.01097484	      6.74990841	      0.11780813	      4.05363190	     -6.98834925	     -7.45656607	    -19.61659089	      1.97382704	     -3.95334924	     17.42297153	      0.30408822	     14.30801109	     16.68656745	     -7.45656607	    -10.08054330	     -4.76166920	    -16.12133157	     -4.96472057	     -4.96418090	    -13.32749349	     14.35236236	     81.56915392	     21.90795538	    -14.83159576	      5.00374052	     50.38841400	     99.30151481
      1.10000000	      3.00991607	      2.70077647	      8.61004711	      1.28872044	      0.87551931	     -0.23554962	     21.66891713	     -2.04855719	     -2.52709009	      8.60703435	      0.15022109	      2.98775177	     -7.73912757	     -7.45709542	    -19.79047476	      1.19884584	     -4.22773269	     19.11351107	      0.33359370	     13.18673052	     16.45003251	     -7.45709542	     -9.96308732	     -4.30198352	    -15.88157926	     -5.04716272	     -5.11040285	    -13.41035470	     14.01031864	     81.39149636	     21.68599503	    -14.60162924	      5.11374478	     50.68256106	     99.45213907
      1.11000000	      2.95054685	      2.31921564	      8.60461198	      1.30478102	      0.87464168	     -0.23422753	     21.68619298	     -1.17555328	     -0.94723572	     10.08850612	      0.17607765	      0.10208710	    -11.54872566	     -7.45985546	    -19.61185780	      0.44159077	     -4.50056465	     20.99688775	      0.36646482	     11.75696011	     15.91112491	     -7.45985546	     -9.57537435	     -3.82861349	    -15.52830109	     -5.07191565	     -5.24416160	    -13.30504273	     13.65582433	     80.60395959	     21.23566079	    -14.37322576	      5.03021418	     50.83189747	    100.04321654
      1.12000000	      3.06088301	      1.98260989	      8.56913135	      1.32092681	      0.87435450	     -0.23299482	     21.57727982	     -0.42633737	     -0.33353254	     11.78601446	      0.20570476	     -1.66594232	    -13.58900631	     -7.46222481	    -19.45031235	     -0.25218641	     -4.70155261	     23.08761112	      0.40295483	      9.74651822	     14.83976065	     -7.46222481	     -9.39136836	     -3.36170175	    -15.06124119	     -5.08552584	     -5.39100203	    -13.06537430	     13.33986638	     80.00401593	     20.80493515	    -14.07205622	      5.00794890	     50.81192677	    100.47362583
      1.13000000	      3.38733066	      1.60731458	      8.50160043	      1.33707929	      0.87468720	     -0.23176209	     21.22126787	      0.31437950	     -0.35853095	     13.54203495	      0.23635310	     -2.27846758	    -14.37293030	     -7.46268075	    -19.27547559	     -1.06272106	     -5.14943396	     25.53555134	      0.44567945	      7.58757265	     14.02350694	     -7.46268075	     -9.47432855	     -2.80355262	    -14.50036466	     -5.05635410	     -5.52501752	    -13.02693150	     13.11867390	     79.88142120	     20.35563050	    -13.72071703	      5.00547891	     50.77487734	    100.54290586
      1.14000000	      3.53693015	      1.18233020	      8.31437237	      1.35318065	      0.87517442	     -0.23037805	     20.99792208	      1.14132012	     -0.10267107	     15.24419041	      0.26606131	     -2.85264269	    -15.70274220	     -7.46325212	    -18.67921184	     -1.84021701	     -5.59229280	     28.24564195	      0.49297945	      4.66936095	     12.54375840	     -7.46325212	     -9.32123139	     -2.22798756	    -13.84748552	     -4.96596067	     -5.68283618	    -12.92788686	     12.86897392	     79.72853997	     19.75474865	    -13.34315861	      4.93877709	     50.52693436	    100.59958123
      1.15000000	      3.70330778	      0.85816225	      8.08512984	      1.36887761	      0.87619107	     -0.22899089	     20.57044054	      1.93725170	      0.75398919	     16.66378965	      0.29083800	     -4.00423441	    -18.25851329	     -7.46523501	    -17.90257446	     -2.30296709	     -5.32655074	     31.10581055	      0.54289881	      0.97666038	      9.47319972	     -7.46523501	     -9.27153444	     -1.75881848	    -13.16612081	     -4.73476724	     -5.81473098	    -12.28377382	     12.52966939	     79.25134918	     19.14387752	    -12.94314055	      4.78744995	     50.10112975	    100.80009530
